<?xml version="1.0" standalone="no"?>
<!DOCTYPE svg PUBLIC "-//W3C//DTD SVG 20010904//EN"
 "http://www.w3.org/TR/2001/REC-SVG-20010904/DTD/svg10.dtd">
<svg version="1.0" xmlns="http://www.w3.org/2000/svg"
 width="800.000000pt" height="800.000000pt" viewBox="0 0 800.000000 800.000000"
 preserveAspectRatio="xMidYMid meet">
<metadata>
Created by potrace 1.16, written by Peter Selinger 2001-2019
</metadata>
<g transform="translate(0.000000,800.000000) scale(0.100000,-0.100000)"
fill="#000000" stroke="none">
<path d="M3680 7994 c-19 -2 -80 -9 -135 -15 -967 -103 -1904 -591 -2549
-1329 -541 -618 -862 -1332 -973 -2160 -23 -171 -26 -772 -5 -940 100 -792
383 -1467 870 -2075 124 -154 433 -463 587 -587 633 -507 1369 -805 2170 -878
142 -13 568 -13 710 0 801 73 1536 370 2170 878 154 123 464 433 587 587 488
609 770 1283 870 2075 21 168 18 769 -5 940 -63 471 -185 876 -387 1285 -527
1064 -1485 1834 -2634 2116 -326 79 -509 100 -906 104 -184 2 -351 1 -370 -1z
m-1430 -2744 c0 -374 3 -680 8 -680 4 0 20 16 35 35 74 93 248 216 377 268
326 130 755 48 964 -184 84 -94 143 -219 172 -369 25 -128 34 -436 34 -1202
l0 -738 -324 0 -325 0 -4 853 c-4 904 -5 926 -52 1017 -27 52 -102 120 -163
148 -46 21 -76 27 -156 30 -166 7 -280 -32 -386 -134 -100 -95 -150 -229 -169
-451 -6 -67 -11 -412 -11 -790 l0 -673 -320 0 -320 0 0 1775 0 1775 320 0 320
0 0 -680z m2560 -1 l0 -681 99 93 c168 160 346 246 556 269 289 31 598 -78
745 -262 55 -69 116 -196 139 -289 36 -142 41 -278 41 -1151 l0 -848 -319 0
-320 0 -4 838 c-5 866 -7 918 -48 1012 -26 60 -111 143 -176 173 -59 26 -220
35 -306 17 -181 -37 -312 -171 -366 -372 -36 -133 -41 -247 -41 -968 l0 -700
-320 0 -320 0 0 1775 0 1775 320 0 320 0 0 -681z"/>
</g>
</svg>
